<?xml version="1.0" encoding="UTF-8" standalone="no"?>
<svg
   xmlns:dc="http://purl.org/dc/elements/1.1/"
   xmlns:cc="http://creativecommons.org/ns#"
   xmlns:rdf="http://www.w3.org/1999/02/22-rdf-syntax-ns#"
   xmlns:svg="http://www.w3.org/2000/svg"
   xmlns="http://www.w3.org/2000/svg"
   xmlns:xlink="http://www.w3.org/1999/xlink"
   xmlns:sodipodi="http://sodipodi.sourceforge.net/DTD/sodipodi-0.dtd"
   xmlns:inkscape="http://www.inkscape.org/namespaces/inkscape"
   viewBox="0 0 16 16"
   version="1.1"
   x="0px"
   y="0px"
   id="svg92"
   sodipodi:docname="airpods_case.svg"
   inkscape:version="0.92.1 r15371"
   width="16"
   height="16">
  <metadata
     id="metadata98">
    <rdf:RDF>
      <cc:Work
         rdf:about="">
        <dc:format>image/svg+xml</dc:format>
        <dc:type
           rdf:resource="http://purl.org/dc/dcmitype/StillImage" />
        <dc:title>Airpod  case outline open alt</dc:title>
      </cc:Work>
    </rdf:RDF>
  </metadata>
  <defs
     id="defs96">
    <linearGradient
       inkscape:collect="always"
       id="linearGradient168">
      <stop
         style="stop-color:#e6e6e6;stop-opacity:1"
         offset="0"
         id="stop164" />
      <stop
         id="stop172"
         offset="0.48484299"
         style="stop-color:#ffffff;stop-opacity:1" />
      <stop
         style="stop-color:#e6e6e6;stop-opacity:1"
         offset="1"
         id="stop166" />
    </linearGradient>
    <linearGradient
       inkscape:collect="always"
       id="linearGradient156">
      <stop
         style="stop-color:#e6e6e6;stop-opacity:1"
         offset="0"
         id="stop152" />
      <stop
         id="stop162"
         offset="0.50393701"
         style="stop-color:#f9f9f9;stop-opacity:1" />
      <stop
         style="stop-color:#e6e6e6;stop-opacity:1"
         offset="1"
         id="stop154" />
    </linearGradient>
    <linearGradient
       inkscape:collect="always"
       xlink:href="#linearGradient156"
       id="linearGradient158"
       x1="18.086773"
       y1="20.785725"
       x2="82.036446"
       y2="21.216362"
       gradientUnits="userSpaceOnUse"
       gradientTransform="matrix(0.17155564,0,0,0.17155564,-0.55806079,-0.61103316)" />
    <linearGradient
       inkscape:collect="always"
       xlink:href="#linearGradient168"
       id="linearGradient170"
       x1="17.010181"
       y1="61.265652"
       x2="83.328354"
       y2="61.696285"
       gradientUnits="userSpaceOnUse"
       gradientTransform="matrix(0.17155564,0,0,0.17155564,-0.55806079,-0.61103316)" />
  </defs>
  <sodipodi:namedview
     pagecolor="#ffffff"
     bordercolor="#666666"
     borderopacity="1"
     objecttolerance="10"
     gridtolerance="10"
     guidetolerance="10"
     inkscape:pageopacity="0"
     inkscape:pageshadow="2"
     inkscape:window-width="1348"
     inkscape:window-height="820"
     id="namedview94"
     showgrid="false"
     inkscape:zoom="26.272"
     inkscape:cx="6.5721514"
     inkscape:cy="10.216452"
     inkscape:window-x="47"
     inkscape:window-y="74"
     inkscape:window-maximized="0"
     inkscape:current-layer="svg92" />
  <title
     id="title74">Airpod  case outline open alt</title>
  <desc
     id="desc76">Created with Sketch.</desc>
  <g
     id="g86"
     style="fill:none;fill-rule:evenodd;stroke:none;stroke-width:1"
     transform="matrix(0.17155563,0,0,0.17155563,-0.55806075,-0.61103308)">
    <path
       d="M 80.166476,32.5 H 77.59792 Z m -2.568556,0 h -0.735031 l 1.165208,-0.896312 C 81.453351,28.968882 83.5,24.904295 83.5,20.5 c 0,-7.731986 -6.268013,-14 -14,-14 h -39 c -7.731987,0 -14,6.268014 -14,14 0,4.404295 2.046649,8.468882 5.471903,11.103688 L 23.137111,32.5 H 22.40208 Z M 82.5,31.5 v 2 h -65 v -2 h 2.801329 C 17.274631,28.694815 15.5,24.743872 15.5,20.5 c 0,-8.284271 6.715729,-15 15,-15 h 39 c 8.284271,0 15,6.715729 15,15 0,4.243872 -1.774631,8.194815 -4.801329,11 z m 1,3 h -67 V 79 c 0,8.560414 6.939586,15.5 15.5,15.5 h 36 c 8.560414,0 15.5,-6.939586 15.5,-15.5 z m 1,-1 V 79 c 0,9.112698 -7.387302,16.5 -16.5,16.5 H 32 C 22.887302,95.5 15.5,88.112698 15.5,79 V 33.5 Z"
       id="path78"
       inkscape:connector-curvature="0"
       style="fill:#000000;fill-rule:nonzero" />
    <path
       d="M 24.929801,14.240587 C 22.283354,15.128408 20.5,17.607712 20.5,20.399111 c 0,2.867804 1.677591,5.470467 4.28944,6.654759 l 13.352758,6.05455 c 0.601124,0.272568 1.254848,0.409564 1.914829,0.401277 2.485086,-0.03121 4.474348,-2.071063 4.443142,-4.556148 L 44.311616,13.937946 c -0.0059,-0.467589 -0.08459,-0.931405 -0.233321,-1.374748 C 43.287837,10.206972 40.736946,8.9376665 38.38072,9.7281242 Z M 24.611746,13.292515 38.062665,8.7800521 c 2.879831,-0.9661149 5.997587,0.585259 6.963702,3.4650909 0.181782,0.541863 0.277994,1.108749 0.28517,1.680246 l 0.188554,15.015603 c 0.03814,3.037327 -2.393181,5.530486 -5.430508,5.568626 -0.806643,0.01013 -1.605639,-0.157311 -2.340346,-0.490449 L 24.376478,27.964619 C 21.407181,26.618248 19.5,23.659393 19.5,20.399111 c 0,-3.22112 2.057891,-6.0821 5.111746,-7.106596 z"
       id="path80"
       inkscape:connector-curvature="0"
       style="fill:#000000;fill-rule:nonzero" />
    <path
       d="M 75.388254,13.292515 C 78.442109,14.317011 80.5,17.177991 80.5,20.399111 c 0,3.260282 -1.907181,6.219137 -4.876478,7.565508 l -13.352759,6.05455 c -0.734707,0.333138 -1.533703,0.500578 -2.340346,0.490449 -3.037327,-0.03814 -5.468648,-2.531299 -5.430508,-5.568626 l 0.188554,-15.015603 c 0.0072,-0.571497 0.103388,-1.138383 0.28517,-1.680246 0.966115,-2.8798319 4.083871,-4.4312058 6.963702,-3.4650909 z M 75.070199,14.240587 61.61928,9.7281242 c -2.356226,-0.7904577 -4.907117,0.4788478 -5.697575,2.8350738 -0.148731,0.443343 -0.227449,0.907159 -0.233321,1.374748 l -0.188553,15.015603 c -0.03121,2.485085 1.958056,4.524942 4.443142,4.556148 0.659981,0.0083 1.313705,-0.128709 1.914829,-0.401277 L 75.21056,27.05387 C 77.822409,25.869578 79.5,23.266915 79.5,20.399111 c 0,-2.791399 -1.783354,-5.270703 -4.429801,-6.158524 z"
       id="path82"
       inkscape:connector-curvature="0"
       style="fill:#000000;fill-rule:nonzero" />
    <path
       d="m 35,34 h 30 v 0 c 0,2.209139 -1.790861,4 -4,4 H 39 c -2.209139,0 -4,-1.790861 -4,-4 z"
       id="path84"
       inkscape:connector-curvature="0"
       style="fill:#000000" />
  </g>
  <path
     style="fill:url(#linearGradient170);fill-opacity:1;stroke-width:0.03693914"
     d="M 4.3758819,15.522364 C 4.2336661,15.492135 3.9677037,15.39483 3.7848556,15.306117 3.1076831,14.977574 2.6498306,14.442216 2.3940474,13.679877 L 2.3072949,13.421302 2.2971168,9.3672301 2.2869388,5.3131588 h 1.5658348 1.5658348 l 0.063384,0.1659764 c 0.082496,0.2159988 0.2769226,0.3747519 0.5210423,0.4254315 0.1261042,0.02618 0.8547662,0.03599 2.1447023,0.028875 1.7694846,-0.00972 1.964715,-0.01681 2.070436,-0.074652 0.149099,-0.081582 0.335395,-0.3069312 0.364936,-0.4414251 l 0.02289,-0.1041978 h 1.566978 1.56698 v 3.9835195 c 0,3.8656467 -0.0022,3.9921647 -0.0741,4.2757067 -0.235833,0.930001 -0.931584,1.647837 -1.865211,1.924417 -0.204675,0.06064 -0.487364,0.06623 -3.6939167,0.07309 -2.9532895,0.0064 -3.5109275,-7.89e-4 -3.730854,-0.04753 z"
     id="path148"
     inkscape:connector-curvature="0" />
  <path
     style="fill:url(#linearGradient158);fill-opacity:1;stroke-width:0.03693914"
     d="M 3.2033666,4.777215 C 2.5013689,4.2261177 2.1609166,3.289446 2.3442043,2.4134399 2.4869025,1.7314269 3.0015461,1.0726784 3.6226529,0.7769975 4.1687596,0.51702878 3.9458172,0.52953445 8.0328578,0.52953445 c 4.1255582,0 3.8886762,-0.0139977 4.4151672,0.26194685 0.810525,0.4248787 1.289811,1.2124778 1.291384,2.1221022 0.0012,0.6770848 -0.265206,1.273363 -0.783015,1.752777 -0.143542,0.1328984 -0.296079,0.2502129 -0.338974,0.260701 -0.0429,0.010526 -0.463654,0.01438 -0.935027,0.00868 L 10.825354,4.9253307 11.313003,4.7063054 C 12.428693,4.2051902 12.625699,4.1028431 12.814469,3.9262722 13.453551,3.3284783 13.395168,2.2863593 12.696275,1.81656 12.578134,1.7371997 12.112373,1.5631044 11.238181,1.2717039 9.8963466,0.82444021 9.7567696,0.79444294 9.4478788,0.88699143 9.252965,0.94541267 9.0002429,1.1746785 8.8947862,1.3888125 c -0.085388,0.1733895 -0.086313,0.18925 -0.097685,1.6791418 -0.011105,1.4518787 -0.0088,1.5100755 0.064646,1.6761977 0.041867,0.094654 0.076133,0.1782948 0.076133,0.185871 0,0.00752 -0.4159928,0.013778 -0.9244275,0.013778 H 7.0890241 L 7.14438,4.8367565 C 7.2609768,4.611286 7.2715112,4.4137678 7.2440659,2.9675624 7.2179326,1.5902442 7.2132126,1.5202197 7.1367791,1.374213 6.9567873,1.0303837 6.6639974,0.84571476 6.2967303,0.84437278 6.1112667,0.84367872 5.8662017,0.91320574 4.7948617,1.270304 3.9686837,1.5456937 3.4547166,1.7367253 3.3457224,1.8089132 2.6213512,2.2887193 2.5831841,3.3731214 3.2694046,3.9771623 3.3780099,4.0727193 3.6977964,4.2391671 4.2717764,4.4987656 4.7353657,4.7084375 5.1396001,4.8938412 5.1700751,4.910773 5.2008701,4.927883 4.8235505,4.942043 4.3204742,4.942656 L 3.4154646,4.943756 3.2033677,4.7772508 Z"
     id="path150"
     inkscape:connector-curvature="0" />
  <path
     style="fill:#f9f9f9;stroke-width:0.03693914"
     d="M 4.6626874,4.449443 C 4.0687192,4.1780388 3.5248083,3.9117883 3.4539971,3.8577863 2.8301869,3.381983 2.8350213,2.38394 3.4630206,1.9856461 3.5575241,1.925721 4.182599,1.6959693 4.9187886,1.450577 6.0438346,1.075559 6.2292799,1.0235698 6.3677868,1.044347 c 0.1989387,0.029847 0.4215688,0.1718857 0.5398063,0.3444423 0.082958,0.1210765 0.092873,0.1802845 0.1154312,0.6893706 0.01357,0.3063008 0.026075,0.9771616 0.027788,1.4908056 0.00335,0.996819 -0.012158,1.1021046 -0.1897891,1.2911846 -0.074432,0.079232 -0.1058404,0.083594 -0.5984984,0.083189 l -0.5199436,-4.29e-4 z"
     id="path174"
     inkscape:connector-curvature="0" />
  <path
     style="fill:#ffffff;stroke-width:0.03693914"
     d="M 9.1414209,4.8182742 C 9.0887725,4.749256 9.0292059,4.6370503 9.0090432,4.5689347 8.9486432,4.3649173 9.0031432,1.7121306 9.0717102,1.5200115 9.1687702,1.247942 9.4882091,1.029088 9.7892176,1.0284287 c 0.106211,-2.43e-4 2.5351584,0.814311 2.7258304,0.9141013 0.267639,0.1400838 0.491405,0.481148 0.541913,0.8259953 0.03056,0.2086969 -0.053,0.5623362 -0.18069,0.7646009 C 12.688559,3.8304845 12.5054,3.9425375 11.370487,4.4543237 L 10.28512,4.9437675 H 9.7611286 9.2371369 Z"
     id="path176"
     inkscape:connector-curvature="0" />
  <path
     style="fill:#ffffff;stroke-width:0.03693914"
     d="M 5.0777257,4.6471127 C 3.5324481,3.9340693 3.4761231,3.9049628 3.3257538,3.7418346 3.0997343,3.4966274 3.0178856,3.3052835 2.9982317,2.9761348 2.9855064,2.763065 2.9970991,2.6473446 3.0432797,2.5264416 3.1348333,2.2866947 3.2986059,2.0799993 3.4822672,1.9723653 3.5715071,1.9200755 4.2163387,1.6849097 4.9152174,1.4498019 6.3284189,0.97438027 6.3615293,0.9689893 6.6748661,1.162705 c 0.1158164,0.07161 0.2006451,0.1621333 0.2600138,0.2775066 0.087112,0.1692712 0.08836,0.187376 0.1092188,1.5889419 0.022686,1.5236395 0.016555,1.5915701 -0.1628124,1.8047348 L 6.7888306,4.9437665 6.2472624,4.9402922 5.705694,4.936818 Z"
     id="path178"
     inkscape:connector-curvature="0" />
  <path
     style="fill:#ffffff;stroke-width:0.03693914"
     d="M 9.1452872,4.8312703 C 8.9755417,4.62954 8.9661943,4.517989 8.9939392,3.0251044 9.0161277,1.831333 9.0286217,1.6170948 9.0834451,1.4899563 9.1976846,1.2250942 9.4982224,1.0290533 9.7909966,1.0284287 c 0.05274,-1.157e-4 0.6825804,0.1982503 1.3996544,0.4408084 1.40037,0.4736979 1.471815,0.5087044 1.687921,0.8271752 0.312166,0.4600239 0.216868,1.0906956 -0.225412,1.491766 -0.162901,0.1477189 -0.373022,0.2570765 -1.280943,0.6666997 L 10.28614,4.9448771 9.7630406,4.9443275 9.2399414,4.9437792 Z"
     id="path180"
     inkscape:connector-curvature="0" />
  <path
     style="fill:#ffffff;stroke-width:0.03693914"
     d="M 5.0777257,4.6473325 C 4.7323439,4.4874445 4.2456084,4.2618067 3.9960884,4.1459128 3.4826189,3.907427 3.2755984,3.745629 3.1213791,3.4622803 2.9831278,3.2082578 2.9472156,2.7779652 3.0432797,2.5264416 3.1352729,2.2855495 3.2988454,2.0798488 3.4852936,1.9705838 3.6915703,1.849704 6.1435557,1.0282204 6.2981012,1.0282204 c 0.1809231,0 0.4758972,0.1683111 0.5942296,0.3390629 0.098297,0.1418306 0.1069279,0.1840559 0.1300758,0.6359817 0.01364,0.2662273 0.026318,0.9375509 0.028181,1.4918237 0.00359,1.0766536 -0.00983,1.173848 -0.1895105,1.3650614 -0.074907,0.07973 -0.1035501,0.083479 -0.6169676,0.080748 l -0.5384134,-0.0029 z"
     id="path182"
     inkscape:connector-curvature="0" />
</svg>
