<?xml version="1.0" encoding="UTF-8" standalone="no"?>
<svg
   xmlns:dc="http://purl.org/dc/elements/1.1/"
   xmlns:cc="http://creativecommons.org/ns#"
   xmlns:rdf="http://www.w3.org/1999/02/22-rdf-syntax-ns#"
   xmlns:svg="http://www.w3.org/2000/svg"
   xmlns="http://www.w3.org/2000/svg"
   xmlns:sodipodi="http://sodipodi.sourceforge.net/DTD/sodipodi-0.dtd"
   xmlns:inkscape="http://www.inkscape.org/namespaces/inkscape"
   version="1.1"
   xml:space="preserve"
   width="16"
   height="16"
   id="svg440"
   sodipodi:docname="AirpodR.svg"
   inkscape:version="0.92.1 r15371"><metadata
     id="metadata446"><rdf:RDF><cc:Work
         rdf:about=""><dc:format>image/svg+xml</dc:format><dc:type
           rdf:resource="http://purl.org/dc/dcmitype/StillImage" /><dc:title></dc:title></cc:Work></rdf:RDF></metadata><defs
     id="defs444" /><sodipodi:namedview
     pagecolor="#ffffff"
     bordercolor="#666666"
     borderopacity="1"
     objecttolerance="10"
     gridtolerance="10"
     guidetolerance="10"
     inkscape:pageopacity="0"
     inkscape:pageshadow="2"
     inkscape:window-width="1315"
     inkscape:window-height="962"
     id="namedview442"
     showgrid="false"
     inkscape:zoom="41.71922"
     inkscape:cx="8.6762275"
     inkscape:cy="7.3747347"
     inkscape:window-x="675"
     inkscape:window-y="156"
     inkscape:window-maximized="0"
     inkscape:current-layer="svg440" /><rect
     id="backgroundrect"
     width="100%"
     height="100%"
     x="0"
     y="-496.00098"
     style="fill:none;stroke:none" /><g
     class="currentLayer"
     id="g438"
     transform="matrix(0.03162931,0,0,0.03162931,-0.12931463,-0.10512203)"><title
       id="title409">Layer 1</title><path
       style="fill:#cccccc"
       d="m 154.45577,490.902 v -15.748 h 62.643 v 15.748 c 0,6.93 -5.67,12.598 -12.598,12.598 h -37.445 c -6.93,0 -12.6,-5.67 -12.6,-12.598 z"
       id="svg_3"
       class=""
       inkscape:connector-curvature="0" /><path
       style="fill:#bababa"
       d="m 184.45477,490.902 v -15.748 h -29.999 v 15.748 c 0,6.93 5.67,12.598 12.598,12.598 h 29.999 c -6.928,0 -12.598,-5.67 -12.598,-12.598 z"
       id="svg_4"
       class=""
       inkscape:connector-curvature="0" /><path
       style="fill:#efefef"
       d="m 368.86477,66.521 c 0,0 -31.728,-58.968 -101.721,-58.968 -30.472,0 -55.207,13.036 -71.672,29.502 -49.138,43.814 -48.714,129.905 -48.714,129.905 0,12.449 0,291.019 0,301.589 0,4.199 3.404,7.604 7.604,7.604 h 62.32 c 4.29,0 7.768,-3.478 7.768,-7.768 0,-15.184 0,-239.561 0,-254.705 v -21.471 c 12.019,6.843 26.188,11.323 42.695,11.323 69.993,0 101.721,-58.968 101.721,-58.968 -10e-4,-0.245 -10e-4,5.395 -10e-4,-78.043 z"
       id="svg_7"
       class=""
       inkscape:connector-curvature="0" /><path
       style="fill:#dddddd"
       d="m 176.75677,468.55 c 0,-10.568 0,-289.205 0,-301.589 0,0 -0.424,-86.091 48.715,-129.906 13.779,-13.779 33.352,-25.151 57.229,-28.497 -34.821,-4.57 -65.562,6.832 -87.227,28.497 -49.14,43.814 -48.716,129.905 -48.716,129.905 0,12.449 0,291.019 0,301.589 0,4.199 3.404,7.604 7.604,7.604 h 29.999 c -4.201,0 -7.604,-3.405 -7.604,-7.603 z"
       id="svg_8"
       class=""
       inkscape:connector-curvature="0" /><path
       style="fill:#efefef"
       d="m 368.86277,66.617 c -8.392,-10.516 -25.251,-4.546 -25.251,9.224 v 59.401 c 0,13.776 16.864,19.733 25.251,9.224 l 0.003,0.096"
       id="svg_9"
       class=""
       inkscape:connector-curvature="0" /><path
       style="fill:#666666"
       d="m 357.78477,149.812 c 7.828,0 14.173,-6.346 14.173,-14.173 V 75.444 c 0,-7.828 -6.346,-14.173 -14.173,-14.173 -7.827,0 -14.173,6.346 -14.173,14.173 v 60.194 c -10e-4,7.829 6.345,14.174 14.173,14.174 z"
       id="svg_12"
       class=""
       inkscape:connector-curvature="0" /><path
       style="fill:#535454"
       d="m 357.78477,111.844 c -7.828,0 -14.173,-6.346 -14.173,-14.173 v 37.968 c 0,7.828 6.346,14.173 14.173,14.173 7.827,0 14.173,-6.346 14.173,-14.173 V 97.67 c 0.001,7.829 -6.345,14.174 -14.173,14.174 z"
       id="svg_13"
       class=""
       inkscape:connector-curvature="0" /><circle
       style="fill:#666666"
       cx="301.09378"
       cy="105.545"
       r="14.173"
       id="svg_14"
       class="" /><path
       d="m 187.60477,98.867 c 2.845,0 5.565,-1.627 6.825,-4.383 6.234,-13.629 14.151,-24.782 23.533,-33.148 0.106,-0.095 0.21,-0.192 0.312,-0.293 2.663,-2.663 5.56,-5.162 8.607,-7.429 3.324,-2.471 4.016,-7.169 1.544,-10.493 -2.472,-3.326 -7.172,-4.018 -10.493,-1.544 -3.574,2.657 -6.976,5.585 -10.111,8.706 -10.87,9.737 -19.964,22.509 -27.032,37.962 -1.723,3.767 -0.066,8.217 3.701,9.939 1.011,0.465 2.071,0.683 3.114,0.683 z"
       id="svg_25"
       class=""
       inkscape:connector-curvature="0" /><path
       d="m 322.76377,105.542 c 0,-11.95 -9.723,-21.674 -21.673,-21.674 -11.95,0 -21.674,9.724 -21.674,21.674 0,11.95 9.724,21.673 21.674,21.673 11.952,0 21.673,-9.722 21.673,-21.673 z m -28.347,0 c 0,-3.681 2.994,-6.675 6.675,-6.675 3.68,0 6.674,2.994 6.674,6.675 0,3.68 -2.994,6.674 -6.674,6.674 -3.681,0 -6.675,-2.994 -6.675,-6.674 z"
       id="svg_26"
       class=""
       inkscape:connector-curvature="0" /><path
       d="m 178.91477,156.26 c -0.399,-0.27 -0.84,-0.5 -1.29,-0.689 -0.449,-0.181 -0.93,-0.33 -1.399,-0.431 -0.97,-0.189 -1.97,-0.189 -2.94,0 -0.47,0.101 -0.95,0.25 -1.399,0.431 -0.45,0.189 -0.891,0.42 -1.29,0.689 -0.41,0.28 -0.8,0.59 -1.141,0.94 -1.399,1.39 -2.199,3.32 -2.199,5.3 0,0.49 0.05,0.98 0.149,1.46 0.09,0.48 0.24,0.96 0.43,1.41 0.181,0.45 0.41,0.89 0.681,1.29 0.28,0.41 0.59,0.8 0.94,1.14 0.341,0.351 0.73,0.66 1.141,0.931 0.399,0.27 0.84,0.51 1.29,0.689 0.449,0.191 0.93,0.33 1.399,0.43 0.49,0.101 0.98,0.15 1.471,0.15 0.489,0 0.979,-0.05 1.47,-0.15 0.47,-0.1 0.95,-0.239 1.399,-0.43 0.45,-0.18 0.891,-0.42 1.29,-0.689 0.41,-0.271 0.801,-0.58 1.141,-0.931 0.35,-0.34 0.66,-0.729 0.939,-1.14 0.271,-0.4 0.5,-0.84 0.69,-1.29 0.18,-0.45 0.33,-0.93 0.42,-1.41 0.1,-0.479 0.15,-0.97 0.15,-1.46 0,-1.97 -0.801,-3.91 -2.2,-5.3 -0.341,-0.35 -0.732,-0.66 -1.142,-0.94 z"
       id="svg_27"
       class=""
       inkscape:connector-curvature="0" /><path
       d="m 164.77877,450.367 c 0,4.143 3.357,7.5 7.5,7.5 h 26.999 c 4.143,0 7.5,-3.357 7.5,-7.5 0,-4.143 -3.357,-7.5 -7.5,-7.5 h -26.999 c -4.143,10e-4 -7.5,3.357 -7.5,7.5 z"
       id="svg_28"
       class=""
       inkscape:connector-curvature="0" /><g
       id="svg_31"
       class="" /><g
       id="svg_32"
       class="" /><g
       id="svg_33"
       class="" /><g
       id="svg_34"
       class="" /><g
       id="svg_35"
       class="" /><g
       id="svg_36"
       class="" /><g
       id="svg_37"
       class="" /><g
       id="svg_38"
       class="" /><g
       id="svg_39"
       class="" /><g
       id="svg_40"
       class="" /><g
       id="svg_41"
       class="" /><g
       id="svg_42"
       class="" /><g
       id="svg_43"
       class="" /><g
       id="svg_44"
       class="" /><g
       id="svg_45"
       class="" /></g></svg>