<?xml version="1.0" encoding="UTF-8" standalone="no"?>
<svg
   xmlns:dc="http://purl.org/dc/elements/1.1/"
   xmlns:cc="http://creativecommons.org/ns#"
   xmlns:rdf="http://www.w3.org/1999/02/22-rdf-syntax-ns#"
   xmlns:svg="http://www.w3.org/2000/svg"
   xmlns="http://www.w3.org/2000/svg"
   xmlns:sodipodi="http://sodipodi.sourceforge.net/DTD/sodipodi-0.dtd"
   xmlns:inkscape="http://www.inkscape.org/namespaces/inkscape"
   enable-background="new 0 0 24 24"
   height="16"
   version="1.1"
   viewBox="0 0 16 16"
   width="16"
   xml:space="preserve"
   id="svg88"
   sodipodi:docname="airpods_disconnected.svg"
   inkscape:version="0.92.1 r15371"><metadata
     id="metadata94"><rdf:RDF><cc:Work
         rdf:about=""><dc:format>image/svg+xml</dc:format><dc:type
           rdf:resource="http://purl.org/dc/dcmitype/StillImage" /><dc:title /></cc:Work></rdf:RDF></metadata><defs
     id="defs92" /><sodipodi:namedview
     pagecolor="#ffffff"
     bordercolor="#666666"
     borderopacity="1"
     objecttolerance="10"
     gridtolerance="10"
     guidetolerance="10"
     inkscape:pageopacity="0"
     inkscape:pageshadow="2"
     inkscape:window-width="1920"
     inkscape:window-height="1026"
     id="namedview90"
     showgrid="false"
     inkscape:zoom="16"
     inkscape:cx="12.099864"
     inkscape:cy="6.7276702"
     inkscape:window-x="0"
     inkscape:window-y="25"
     inkscape:window-maximized="1"
     inkscape:current-layer="svg88" /><g
     id="Filled_Icons_1_"
     transform="matrix(0.65039045,0,0,0.65039045,0.2480472,0.170954)"><g
       id="g82"><path
         d="m 13,20.91 v 1.59 c 0,0.83 0.67,1.5 1.5,1.5 h 1 c 0.83,0 1.5,-0.67 1.5,-1.5 v -4.19 c -0.84,1.299 -2.316,2.319 -4,2.6 z"
         id="path72"
         inkscape:connector-curvature="0" /><path
         d="M 23.9,2.33 C 22.77,0.87 20.94,0 19,0 15.69,0 13,2.47 13,5.5 v 3.59 c 1.681,0.28 3.158,1.298 4,2.6 V 10 c 0,-1.1 0.9,-2 2,-2 0.28,0 0.5,0.22 0.5,0.5 0,0.28 -0.22,0.5 -0.5,0.5 -0.55,0 -1,0.45 -1,1 v 0.92 c 0.33,0.05 0.66,0.08 1,0.08 1.94,0 3.77,-0.87 4.9,-2.33 C 23.96,8.59 24,8.48 24,8.37 V 2.63 C 24,2.52 23.96,2.41 23.9,2.33 Z M 17.7,3.27 C 17.03,3.56 16.51,4.07 16.22,4.7 16.14,4.89 15.96,5 15.77,5 15.7,5 15.63,4.99 15.56,4.96 15.31,4.84 15.2,4.54 15.31,4.29 15.7,3.44 16.4,2.75 17.3,2.35 c 0.25,-0.11 0.55,0.01 0.66,0.26 0.11,0.25 0,0.55 -0.26,0.66 z M 20.75,6 C 20.34,6 20,5.66 20,5.25 20,4.84 20.34,4.5 20.75,4.5 21.16,4.5 21.5,4.84 21.5,5.25 21.5,5.66 21.16,6 20.75,6 Z"
         id="path74"
         inkscape:connector-curvature="0" /><path
         d="M 7,18.31 V 22.5 C 7,23.33 7.67,24 8.5,24 h 1 C 10.33,24 11,23.33 11,22.5 V 20.91 C 9.316,20.629 7.84,19.609 7,18.31 Z"
         id="path76"
         inkscape:connector-curvature="0" /><path
         d="m 5,8 c 1.1,0 2,0.9 2,2 v 1.69 C 7.842,10.388 9.319,9.37 11,9.09 V 5.5 C 11,2.47 8.31,0 5,0 3.06,0 1.23,0.87 0.1,2.33 0.04,2.41 0,2.52 0,2.63 V 8.37 C 0,8.48 0.04,8.59 0.1,8.67 1.23,10.13 3.06,11 5,11 5.34,11 5.67,10.97 6,10.92 V 10 C 6,9.45 5.55,9 5,9 4.72,9 4.5,8.78 4.5,8.5 4.5,8.22 4.72,8 5,8 Z M 6.04,2.61 C 6.15,2.36 6.45,2.24 6.7,2.35 7.6,2.75 8.3,3.44 8.69,4.29 8.8,4.54 8.69,4.84 8.44,4.96 8.37,4.99 8.3,5 8.23,5 8.04,5 7.86,4.89 7.78,4.7 7.49,4.07 6.97,3.56 6.3,3.27 6.04,3.16 5.93,2.86 6.04,2.61 Z M 3.25,6 C 2.84,6 2.5,5.66 2.5,5.25 2.5,4.84 2.84,4.5 3.25,4.5 3.66,4.5 4,4.84 4,5.25 4,5.66 3.66,6 3.25,6 Z"
         id="path78"
         inkscape:connector-curvature="0" /><path
         d="m 12,10 c -2.757,0 -5,2.243 -5,5 0,2.757 2.243,5 5,5 2.757,0 5,-2.243 5,-5 0,-2.757 -2.243,-5 -5,-5 z m 2.354,6.646 c 0.195,0.195 0.195,0.512 0,0.707 C 14.256,17.451 14.128,17.5 14,17.5 c -0.128,0 -0.256,-0.049 -0.354,-0.146 L 12,15.707 10.354,17.354 C 10.256,17.451 10.128,17.5 10,17.5 9.872,17.5 9.744,17.451 9.646,17.354 9.451,17.159 9.451,16.842 9.646,16.647 L 11.293,15 9.646,13.354 c -0.195,-0.195 -0.195,-0.512 0,-0.707 0.195,-0.195 0.512,-0.195 0.707,0 L 12,14.293 13.646,12.646 c 0.195,-0.195 0.512,-0.195 0.707,0 0.195,0.195 0.195,0.512 0,0.707 L 12.707,15 Z"
         id="path80"
         inkscape:connector-curvature="0"
         style="fill:#ececec" /></g></g><g
     id="Invisible_Shape"
     transform="matrix(0.65039045,0,0,0.65039045,0.2480472,0.170954)"><rect
       height="24"
       width="24"
       id="rect85"
       x="0"
       y="0"
       style="fill:none" /></g><path
     style="fill:#ececec;stroke-width:0.0826824"
     d="m 4.8024961,6.996525 c 0,-0.7586269 -0.097697,-1.0271194 -0.4955586,-1.3618976 C 4.0189118,5.3922697 3.5165483,5.2682844 3.3213864,5.3913894 3.2492279,5.4369057 3.1901893,5.5805195 3.1901893,5.710531 c 0,0.2057506 0.048043,0.2530836 0.370716,0.3652399 C 3.97909,6.2211255 4.1379476,6.4518187 4.139818,6.9164688 4.1409706,7.2028028 4.1240003,7.2221385 3.8275903,7.2722167 3.4676589,7.3330267 2.5924266,7.2100092 2.0676148,7.0248448 1.5608004,6.8460302 0.98538802,6.458941 0.5920228,6.0321901 L 0.25496409,5.6665246 V 3.7821755 c 0,-1.8661979 0.001962,-1.8872362 0.20365247,-2.1840508 C 0.705944,1.2341497 1.4975999,0.69205772 2.1241616,0.4576309 3.1826657,0.06159377 4.5642527,0.1813601 5.5157525,0.75163946 6.2241625,1.1762234 6.6739093,1.6546775 7.0191239,2.3509706 L 7.3243093,2.9665255 7.3517285,4.5007131 7.3791476,6.0349006 6.896867,6.17459 C 6.2919031,6.3498137 5.5106214,6.8496876 5.1097604,7.3180037 L 4.8024961,7.6769729 Z M 2.7354361,3.9264994 C 2.9340899,3.7278456 2.9453231,3.5307639 2.7720889,3.2834375 2.5040597,2.9007724 1.8259297,3.1378125 1.8259297,3.6141671 c 0,0.2132018 0.2975718,0.4776971 0.5374356,0.4776971 0.1136883,0 0.2811202,-0.074414 0.3720708,-0.1653648 z M 5.9037791,3.2541463 C 6.1910325,2.7951319 4.7964228,1.4318233 4.3073626,1.6935604 4.0203551,1.8471621 4.0981918,2.1505122 4.4924371,2.4148448 4.6857072,2.5444279 4.9740621,2.8271244 5.1332257,3.0430592 5.357521,3.3473571 5.4672334,3.4304264 5.6209806,3.4123658 5.7300822,3.3995497 5.8573415,3.3283509 5.9037791,3.2541463 Z"
     id="path96"
     inkscape:connector-curvature="0" /><path
     style="fill:#ececec;stroke-width:0.0826824"
     d="M 10.78148,7.1062111 C 10.35018,6.680453 9.5446619,6.2249742 9.033747,6.1179582 L 8.7588069,6.0603695 8.7856997,4.4744836 8.8125926,2.8885977 9.0793969,2.3470885 c 0.343684,-0.6975452 1.0687161,-1.39769385 1.8033751,-1.7414823 1.48818,-0.69640363 3.296552,-0.41960795 4.462435,0.6830359 l 0.454048,0.4294198 v 2.0289253 2.0289254 l -0.421206,0.4059887 c -0.743228,0.7163764 -2.205958,1.2360811 -3.068737,1.0903154 -0.305699,-0.051647 -0.313447,-0.061699 -0.313447,-0.4066092 0,-0.4244099 0.248522,-0.7893657 0.537531,-0.7893657 0.214443,0 0.454658,-0.1965808 0.454658,-0.3720708 0,-0.1718072 -0.238516,-0.3720708 -0.44314,-0.3720708 -0.323086,0 -0.908585,0.3568369 -1.082656,0.6598338 -0.10797,0.1879368 -0.180333,0.5045612 -0.208598,0.9127156 L 11.21038,7.5296024 Z M 14.09836,3.9619347 C 14.251751,3.808544 14.270592,3.3404155 14.12907,3.1988943 13.987549,3.057373 13.51942,3.0762141 13.36603,3.2296053 c -0.169341,0.1693406 -0.165933,0.5200668 0.0069,0.7110546 0.167879,0.1855037 0.549987,0.1967101 0.725421,0.021275 z M 10.953429,3.0660718 C 11.08607,2.839737 11.323928,2.6051445 11.581404,2.4467181 12.019933,2.1768885 12.100863,1.9762495 11.865935,1.7413217 11.680835,1.5562208 11.569777,1.5768599 11.119123,1.88011 c -0.496032,0.333786 -0.942271,0.9078634 -0.942271,1.2122127 0,0.2850279 0.05283,0.3380823 0.336654,0.3380823 0.1802,0 0.269987,-0.074359 0.439923,-0.3643332 z"
     id="path98"
     inkscape:connector-curvature="0" /><path
     style="fill:#ececec;stroke-width:0.0826824"
     d="M 9.2106109,15.588833 C 8.8378852,15.361566 8.7712514,15.187606 8.7712514,14.441802 v -0.657693 l 0.2802484,-0.05258 c 0.4885949,-0.09166 1.2871622,-0.548355 1.7514362,-1.001631 l 0.448787,-0.438157 v 1.361204 c 0,1.50732 -0.06014,1.74767 -0.493388,1.97171 -0.357253,0.184743 -1.2186856,0.164802 -1.5477241,-0.03583 z"
     id="path102"
     inkscape:connector-curvature="0" /><path
     style="fill:#ececec;stroke-width:0.0826824"
     d="M 5.2901473,15.561184 C 4.8841606,15.288212 4.8125019,14.984419 4.8071629,13.513601 L 4.8024961,12.227967 5.2997,12.711483 c 0.4974336,0.48374 1.2695552,0.922846 1.7972327,1.022087 l 0.2687178,0.05054 v 0.618829 c 0,1.000308 -0.3353462,1.347145 -1.3025162,1.347145 -0.3753725,0 -0.5586576,-0.04479 -0.772987,-0.1889 z"
     id="path104"
     inkscape:connector-curvature="0" /><path
     style="fill:#ececec;stroke-width:0.00730816"
     d="M 3.2558987,7.3145287 C 2.57378,7.2759746 1.9035307,7.0650428 1.3156451,6.7039185 l -0.069415,-0.04264 -3.8e-5,-0.031423 c -2.83e-5,-0.02349 0.00229,-0.029947 0.00917,-0.025578 0.00506,0.00321 0.038771,0.025222 0.074909,0.048907 0.1740102,0.1140449 0.3591142,0.2158052 0.5334278,0.2932499 0.4068625,0.1807626 1.0744067,0.3196059 1.6516443,0.3435275 0.1313505,0.00544 0.2735561,-0.00518 0.3900325,-0.029129 C 4.0496729,7.2311599 4.0930201,7.2084859 4.120962,7.148064 4.13565,7.116302 4.136517,7.103356 4.136186,6.9207183 4.1358689,6.7485441 4.13402,6.7186967 4.1195213,6.6517613 4.0840548,6.4880243 4.0338766,6.3893695 3.9362038,6.2913431 3.8369875,6.1917674 3.7487729,6.1411584 3.5425005,6.065474 3.4850888,6.0444089 3.4390474,6.0264168 3.4401863,6.0254917 c 0.00672,-0.00546 0.1711773,0.011376 0.2140072,0.021902 0.1054334,0.025913 0.2147751,0.087564 0.2949432,0.1663001 0.08669,0.085142 0.1454517,0.1847637 0.1777928,0.3014215 0.015491,0.055876 0.016325,0.073879 0.018832,0.4064754 l 0.00262,0.3480102 -0.057083,0.00853 c -0.2600198,0.03885 -0.5604428,0.05194 -0.8354023,0.036399 z"
     id="path106"
     inkscape:connector-curvature="0" /><path
     style="fill:#ececec;stroke-width:0.00390625"
     d="M 4.6966005,6.16184 C 4.6563425,6.0672199 4.583191,5.9458821 4.5146028,5.8599568 4.4727787,5.8075609 4.3642468,5.6993504 4.311728,5.6576831 4.1268636,5.5110152 3.9162003,5.4200507 3.6794097,5.3846479 c -0.043711,-0.00654 -0.075129,-0.00838 -0.1473534,-0.00865 -0.084328,-3.17e-4 -0.094275,3.733e-4 -0.1222624,0.00848 -0.053608,0.015537 -0.096737,0.040587 -0.1384798,0.080433 -0.013428,0.012817 -0.024414,0.022103 -0.024414,0.020636 0,-0.00147 0.00702,-0.013788 0.015606,-0.027378 0.03239,-0.051285 0.074851,-0.080515 0.1442458,-0.099296 0.035304,-0.00955 0.042702,-0.010132 0.1311639,-0.010244 0.081149,-1.022e-4 0.1005753,0.0011 0.1445312,0.00893 0.212035,0.037787 0.4184894,0.1246856 0.5773993,0.2430327 0.055214,0.041121 0.1274705,0.1057486 0.1923687,0.1720601 0.095207,0.097281 0.1535068,0.1777127 0.2048975,0.2826829 0.029973,0.061222 0.060119,0.1358797 0.057745,0.1430036 -6.586e-4,0.00198 -0.00887,-0.01445 -0.018257,-0.036503 z"
     id="path108"
     inkscape:connector-curvature="0" /><path
     style="fill:#ececec;stroke-width:0.00390625"
     d="m 4.8031727,7.7226124 v -0.04366 L 4.9775512,7.4751615 C 5.1210355,7.3074755 5.1693067,7.2540377 5.2500121,7.1735382 5.3753729,7.0484973 5.4864071,6.9529603 5.6410634,6.8370666 5.8529439,6.6782911 6.0880597,6.5314964 6.3246571,6.4102645 l 0.070312,-0.036028 0.00132,0.010953 c 8.017e-4,0.00666 -7.307e-4,0.011628 -0.00391,0.012674 -0.011607,0.00382 -0.1882814,0.094762 -0.2356942,0.1213164 -0.5379933,0.3013148 -0.9959534,0.7167173 -1.319921,1.1972657 l -0.033591,0.049827 z"
     id="path110"
     inkscape:connector-curvature="0" /><path
     style="fill:#ececec;stroke-width:0.00390625"
     d="m 4.8500477,9.3693069 c 0,-9.2e-4 0.00718,-0.037395 0.015951,-0.081055 C 4.9780716,8.7305068 5.2312574,8.219655 5.6119801,7.7830891 5.7102391,7.6704177 5.8922648,7.49606 6.0160634,7.3960281 6.1204158,7.3117091 6.3212684,7.1716202 6.3852337,7.1385425 l 0.011689,-0.00604 v 0.030925 0.030925 l -0.068585,0.045868 C 6.0670572,7.4149568 5.8262823,7.632613 5.6183573,7.8820256 5.2695244,8.3004616 5.0272001,8.7897402 4.9225201,9.2869953 c -0.00769,0.036524 -0.014869,0.070361 -0.015957,0.075195 -0.00182,0.00809 -0.00416,0.00879 -0.029246,0.00879 -0.014998,0 -0.027269,-7.527e-4 -0.027269,-0.00167 z"
     id="path112"
     inkscape:connector-curvature="0" /><path
     style="fill:#ececec;stroke-width:0.00390625"
     d="m 6.3979706,6.3840633 c -0.00142,-0.00446 -0.00189,-0.00879 -0.00106,-0.00962 0.00381,-0.00381 0.1024668,-0.04882 0.1751762,-0.07992 0.153521,-0.065664 0.2143355,-0.085922 0.5499271,-0.1831891 0.1403607,-0.040682 0.2560673,-0.074833 0.2571257,-0.075891 0.00186,-0.00186 -0.01929,-1.2548263 -0.024425,-1.4469829 l -0.00253,-0.094727 h 0.023916 0.023916 l -3.4e-6,0.7939453 -3.3e-6,0.7939453 -0.051755,0.00921 c -0.290725,0.051747 -0.5890254,0.144235 -0.8787351,0.272452 -0.035894,0.015886 -0.066098,0.028883 -0.067119,0.028883 -0.00102,0 -0.00302,-0.00365 -0.00443,-0.00811 z"
     id="path114"
     inkscape:connector-curvature="0" /><path
     style="fill:#ececec;stroke-width:0.00390625"
     d="M 7.3531026,4.4790842 C 7.3530809,4.4710276 7.3478252,4.1770334 7.3414234,3.8257639 7.3297245,3.1838484 7.3282855,3.076949 7.3313851,3.0800486 c 0.0051,0.0051 0.036511,0.1970044 0.04693,0.2867309 0.018706,0.1611033 0.019059,0.1724011 0.020661,0.6611329 l 0.00153,0.4658203 h -0.02368 -0.02368 z"
     id="path116"
     inkscape:connector-curvature="0" /><path
     style="fill:#ececec;stroke-width:0.00390625"
     d="M 7.1234389,2.5571106 C 6.9304603,2.1694347 6.8802608,2.0782007 6.7629427,1.9019358 6.5618159,1.5997522 6.3422418,1.358235 6.0562671,1.1246388 5.9915887,1.0718068 5.8682263,0.97921003 5.8012029,0.93318579 l -0.045508,-0.03125 0.049315,-0.001098 c 0.057863,-0.001288 0.040043,-0.010155 0.1598371,0.0795321 C 6.1745648,1.13738 6.3635194,1.3114345 6.5329623,1.503686 c 0.3358148,0.3810186 0.581052,0.815882 0.724248,1.2842622 0.012361,0.040432 0.021762,0.074225 0.02089,0.075097 C 7.277229,2.8639165 7.2076313,2.7262461 7.1234389,2.5571106 Z"
     id="path118"
     inkscape:connector-curvature="0" /><path
     style="fill:#ececec;stroke-width:0.00390625"
     d=""
     id="path120"
     inkscape:connector-curvature="0" /><path
     style="fill:#ececec;stroke-width:0.00390625"
     d="M 2.0131704,3.9373831 C 1.9593351,3.8911894 1.9143355,3.8379391 1.8795593,3.7792741 1.8430439,3.7176752 1.8287188,3.6681482 1.8290509,3.6046486 1.8296708,3.4861145 1.8769427,3.3722261 1.963461,3.2808256 c 0.028742,-0.030364 0.076884,-0.072249 0.083041,-0.072249 0.0014,0 -0.012492,0.015136 -0.030868,0.033636 -0.065096,0.065537 -0.1082332,0.143428 -0.1317238,0.2378482 -0.00743,0.029872 -0.00875,0.045725 -0.00875,0.1054687 0,0.059744 0.00131,0.075597 0.00875,0.1054688 0.02378,0.095582 0.067047,0.1730972 0.1339809,0.2400309 0.019448,0.019448 0.033899,0.035318 0.032113,0.035267 -0.00179,-5.08e-5 -0.018361,-0.013062 -0.036835,-0.028913 z"
     id="path122"
     inkscape:connector-curvature="0" /><path
     style="fill:#ececec;stroke-width:0.00390625"
     d="m 2.3221495,4.0875169 c -0.046144,-0.00575 -0.1131693,-0.026631 -0.1542969,-0.048079 -0.025227,-0.013156 -0.017398,-0.013495 0.011947,-5.171e-4 0.012476,0.00552 0.038513,0.014268 0.057858,0.019445 0.2730871,0.073083 0.5537847,-0.1068393 0.6058004,-0.3883073 0.00785,-0.042493 0.00785,-0.1265658 0,-0.1690589 C 2.8249821,3.4010231 2.7780246,3.3122893 2.7051957,3.2397317 2.6237016,3.158541 2.5297161,3.1136065 2.408087,3.097684 c -0.00752,-9.844e-4 0.00256,-0.00107 0.0224,-1.831e-4 0.081882,0.00365 0.163116,0.031657 0.2344949,0.080854 0.089459,0.061659 0.1806704,0.2021109 0.2147421,0.3306703 0.013859,0.052293 0.014509,0.1310656 0.00148,0.1800199 -0.020529,0.077166 -0.066937,0.1522141 -0.1391323,0.2249968 -0.05282,0.05325 -0.095339,0.083613 -0.1637352,0.1169229 -0.093409,0.045492 -0.1841513,0.065522 -0.2561924,0.056552 z"
     id="path124"
     inkscape:connector-curvature="0" /><path
     style="fill:#ececec;stroke-width:0.00390625"
     d="m 0.42391688,1.5986318 -2.0489e-4,-0.045492 0.0437387,-0.050212 C 0.52804886,1.4333624 0.72562031,1.2365833 0.79871199,1.1729958 1.0922382,0.9176372 1.4135566,0.70947153 1.7557432,0.55298447 2.2581398,0.32323104 2.7678831,0.20206424 3.3446104,0.17530818 l 0.051758,-0.002401 v 0.0252049 0.0252049 l -0.05957,0.002568 C 3.018126,0.23962365 2.7590372,0.27526 2.4923023,0.34204113 2.2338678,0.40674414 2.0189234,0.4875114 1.7596495,0.61734185 1.3219246,0.83653103 0.89522758,1.1314813 0.62474805,1.4018317 0.53962634,1.4869128 0.49871463,1.5359824 0.43075282,1.6345099 c -0.006412,0.0093 -0.006638,0.00811 -0.006836,-0.035878 z"
     id="path126"
     inkscape:connector-curvature="0" /><path
     style="fill:#ececec;stroke-width:0.00390625"
     d="M 5.7048158,0.86840558 C 5.5586715,0.77164507 5.4408045,0.70304155 5.3000272,0.63280151 4.9982398,0.48222639 4.6779679,0.37527346 4.3174841,0.30468694 4.0528118,0.25286131 3.7604223,0.22437142 3.4929018,0.22434117 l -0.094727,-1.071e-5 v -0.0253906 -0.0253906 h 0.1107554 c 0.5824274,0 1.154665,0.12037565 1.6841665,0.35428054 0.1446383,0.0638933 0.3331915,0.16298981 0.46875,0.24635743 0.060615,0.0372778 0.1783427,0.11428336 0.1873047,0.1225157 0.00213,0.001955 -0.017863,0.003266 -0.046875,0.003073 l -0.050586,-3.3555e-4 z"
     id="path128"
     inkscape:connector-curvature="0" /><path
     style="fill:#ececec;stroke-width:0.00390625"
     d=""
     id="path130"
     inkscape:connector-curvature="0" /><path
     style="fill:#ececec;stroke-width:0.00390625"
     d=""
     id="path132"
     inkscape:connector-curvature="0" /><path
     style="fill:#ececec;stroke-width:0.00390625"
     d=""
     id="path134"
     inkscape:connector-curvature="0" /><path
     style="fill:#ececec;stroke-width:0.00390625"
     d="M 5.295881,3.2430339 C 5.251423,3.1935379 5.2181972,3.1523319 5.1450308,3.0559526 5.0355587,2.9117493 4.9199179,2.782507 4.7931347,2.6626673 4.6732042,2.549305 4.5958867,2.4851205 4.4871223,2.4086337 4.4297025,2.3682542 4.3552065,2.3111161 4.3552065,2.3074549 c 0,-0.00581 0.1230148,0.054407 0.1914062,0.093698 0.2730397,0.1568591 0.5060645,0.3850872 0.6669858,0.6532561 0.034808,0.058006 0.1162831,0.2160801 0.1130429,0.2193203 -9.243e-4,9.242e-4 -0.014766,-0.012888 -0.03076,-0.030695 z"
     id="path136"
     inkscape:connector-curvature="0" /><path
     style="fill:#ececec;stroke-width:0.00390625"
     d=""
     id="path138"
     inkscape:connector-curvature="0" /><path
     style="fill:#ececec;stroke-width:0.00390625"
     d="m 5.8691847,3.2901933 c -8.83e-5,-0.00137 0.00691,-0.014557 0.015552,-0.029297 0.00864,-0.01474 0.021326,-0.0435 0.028186,-0.06391 0.01209,-0.035966 0.012473,-0.039156 0.012448,-0.1035156 C 5.9253473,3.0311087 5.924675,3.0250547 5.9143467,2.9940577 5.8904627,2.9223825 5.7899323,2.7380562 5.7076382,2.6150503 5.4963766,2.2992752 5.2103338,2.0322183 4.8690245,1.832099 4.7908686,1.7862741 4.620368,1.7010916 4.5798097,1.6876068 4.5002884,1.6611677 4.4071821,1.6678407 4.3328917,1.7053038 l -0.022461,0.011327 v -0.011294 c 0,-0.0098 0.00254,-0.012385 0.019184,-0.019547 0.2211111,-0.09512 0.6520532,0.1154422 1.0662183,0.5209625 0.2801013,0.2742549 0.4698372,0.5553175 0.5287139,0.7832032 0.015397,0.059595 0.019205,0.1357293 0.0091,0.1820203 -0.00845,0.038727 -0.028264,0.080842 -0.048634,0.1033768 -0.00862,0.00954 -0.015744,0.016214 -0.015832,0.014841 z"
     id="path140"
     inkscape:connector-curvature="0" /><path
     style="fill:#ececec;stroke-width:0.00390625"
     d="m 4.1400561,1.9834206 c -0.00429,-0.025954 -0.00266,-0.072618 0.00344,-0.098488 0.014153,-0.060041 0.063288,-0.125043 0.1252091,-0.1656445 0.037325,-0.024474 0.04067,-0.025555 0.04067,-0.013141 0,0.00754 -0.00456,0.013117 -0.018555,0.022693 -0.025506,0.017454 -0.057196,0.047795 -0.077733,0.074425 -0.033385,0.04329 -0.063781,0.1226001 -0.063928,0.1668072 -8.14e-5,0.024397 -0.00587,0.032891 -0.0091,0.013348 z"
     id="path142"
     inkscape:connector-curvature="0" /><path
     style="fill:#ececec;stroke-width:0.00390625"
     d="m 0.25082072,2.9860492 c -6.6776e-4,-1.2349028 -0.002057,-1.1585124 0.0222162,-1.2212673 0.0180609,-0.046693 0.0444979,-0.084733 0.12783489,-0.1839425 l 0.0204547,-0.02435 0.001275,0.043882 0.001275,0.043882 -0.019276,0.031095 C 0.32997856,1.7957217 0.29801271,1.9055057 0.27944296,2.1051898 0.26072152,2.3065052 0.25698749,2.4885034 0.25407745,3.341518 l -0.002645,0.7753906 z"
     id="path144"
     inkscape:connector-curvature="0" /><path
     style="fill:#ececec;stroke-width:0.00390625"
     d="M 1.1852921,6.6216547 C 0.96688009,6.4734005 0.77198185,6.3106474 0.59198513,6.1262035 0.46762371,5.9987696 0.32375676,5.8291128 0.29260725,5.7731586 0.27641771,5.7440771 0.25630189,5.6891304 0.2584267,5.6797937 c 7.2078e-4,-0.00317 0.0802791,0.080205 0.18291621,0.1916854 0.24989925,0.27143 0.3715166,0.3898482 0.54174316,0.5274925 0.0653111,0.05281 0.16675953,0.1294063 0.22891523,0.1728367 0.02292,0.016015 0.040038,0.030129 0.03804,0.031364 -0.002,0.00124 -0.00416,0.014877 -0.0048,0.030315 l -0.00117,0.028069 z"
     id="path146"
     inkscape:connector-curvature="0" /><path
     style="fill:#ececec;stroke-width:0.00552427"
     d="M 5.4978257,12.886716 C 5.4066689,12.809257 5.3363045,12.743004 5.0655514,12.479699 l -0.263784,-0.256528 v -0.06671 c 0,-0.03669 0.00208,-0.06435 0.00461,-0.06146 0.00254,0.0029 0.021557,0.03011 0.042268,0.06049 0.1674179,0.245609 0.4115702,0.517506 0.6395111,0.712183 0.038739,0.03309 0.070435,0.06102 0.070435,0.06207 0,0.0066 -0.01426,-0.0035 -0.060767,-0.04303 z"
     id="path148"
     inkscape:connector-curvature="0" /><path
     style="fill:#ececec;stroke-width:0.00552427"
     d="M 5.6580295,15.770634 C 5.5119726,15.751833 5.3595141,15.69591 5.2437771,15.618682 4.9925311,15.451033 4.835768,15.189198 4.807515,14.890011 c -0.00367,-0.03885 -0.00539,-0.302848 -0.00478,-0.731966 8.522e-4,-0.598407 0.00139,-0.63645 0.00492,-0.350791 0.014167,1.145783 0.09134,1.462918 0.4159591,1.709342 0.1426039,0.108253 0.2811326,0.173391 0.4344204,0.20427 0.2132466,0.04296 0.598304,0.04181 0.8590243,-0.0026 0.1157339,-0.0197 0.2357223,-0.05614 0.3284554,-0.09975 0.1577501,-0.07419 0.2902997,-0.202571 0.3700472,-0.358407 0.074979,-0.146517 0.1234,-0.346226 0.1439871,-0.593859 0.00341,-0.04102 0.00762,-0.256426 0.00935,-0.478684 l 0.00315,-0.404107 -0.029747,-0.006 c -0.016361,-0.0033 -0.089409,-0.0173 -0.1623297,-0.03113 -0.2885317,-0.05471 -0.4760054,-0.119824 -0.7789223,-0.270526 -0.1675554,-0.08336 -0.4342718,-0.236051 -0.4262825,-0.24404 0.00142,-0.0014 0.033274,0.01587 0.070797,0.03842 0.3875052,0.232842 0.8420562,0.40689 1.273896,0.487776 l 0.078721,0.01474 v 0.555162 c 0,0.474314 -0.00126,0.563713 -0.00862,0.613877 -0.06377,0.434269 -0.4027684,0.769964 -0.8347224,0.826588 -0.051626,0.0068 -0.1362525,0.0082 -0.4620479,0.0076 -0.2193651,-3.85e-4 -0.4150042,-0.0028 -0.4347535,-0.0053 z"
     id="path150"
     inkscape:connector-curvature="0" /><path
     style="fill:#ececec;stroke-width:0.00552427"
     d="M 9.5454864,15.768193 C 9.3987603,15.748187 9.2640295,15.696581 9.137327,15.611857 8.9210637,15.467245 8.7784383,15.252945 8.7226421,14.988777 l -0.012693,-0.0601 -0.00165,-0.577778 -0.00165,-0.577779 0.081675,-0.0155 c 0.4987872,-0.09469 0.9871824,-0.295123 1.4268349,-0.58556 0.236076,-0.155953 0.431443,-0.317703 0.638146,-0.528336 0.155983,-0.158949 0.281918,-0.310699 0.393636,-0.474325 0.02596,-0.03803 0.04935,-0.07156 0.05198,-0.07452 0.0027,-0.003 0.004,0.6137 0.003,1.405927 l -0.0018,1.411299 -0.01202,0.06199 c -0.08323,0.429103 -0.417095,0.743413 -0.8463,0.796741 -0.072,0.0089 -0.8276651,0.0067 -0.8963206,-0.0026 z m 0.7627416,-0.02732 c 0.276721,-0.03051 0.445168,-0.0893 0.611889,-0.213572 0.207541,-0.154697 0.285043,-0.386881 0.316906,-0.949406 0.01272,-0.224567 0.01652,-0.544425 0.01661,-1.396662 l 9.3e-5,-0.891191 -0.01862,0.01559 c -0.01024,0.0086 -0.122734,0.117516 -0.249978,0.242089 -0.243259,0.23815 -0.316446,0.305174 -0.446032,0.408472 -0.380179,0.303056 -0.8775898,0.583484 -1.2631456,0.71213 -0.1017201,0.03394 -0.1601934,0.04807 -0.3341277,0.08073 -0.082035,0.0154 -0.1550192,0.02932 -0.1621861,0.03093 l -0.013031,0.0029 0.00283,0.484498 c 0.00278,0.476235 0.00598,0.571496 0.023635,0.702708 0.040077,0.297934 0.1326864,0.441774 0.3890585,0.604281 0.1399311,0.0887 0.358196,0.148495 0.6159937,0.168758 0.042516,0.0033 0.087246,0.007 0.0994,0.0082 0.05148,0.005 0.3365852,-0.0023 0.4107062,-0.01049 z"
     id="path152"
     inkscape:connector-curvature="0" /><path
     style="fill:#ececec;stroke-width:0.00552427"
     d="M 11.279161,7.7300803 C 11.164096,7.555534 11.01175,7.3697045 10.845552,7.2011682 10.336449,6.6849034 9.7057073,6.3223264 9.0081263,6.1449388 c -0.081405,-0.020701 -0.094148,-0.025408 -0.095678,-0.035344 -0.00118,-0.00765 0.00124,-0.011463 0.00728,-0.011463 0.01814,0 0.18958,0.039552 0.2541226,0.058627 0.4044657,0.1195363 0.9613381,0.4211553 1.3589711,0.7360613 0.118345,0.093723 0.178238,0.1489207 0.427961,0.3944113 0.13522,0.1329278 0.247752,0.2416869 0.250071,0.2416869 0.0023,0 0.0042,-0.00761 0.0042,-0.016904 0,-0.033316 0.0442,-0.6561114 0.05271,-0.7426838 0.03763,-0.3828393 0.118618,-0.6701427 0.235142,-0.8341533 0.03401,-0.047868 0.18707,-0.2071719 0.199053,-0.2071719 0.0032,0 -0.01505,0.022995 -0.04055,0.0511 -0.109443,0.1205794 -0.157914,0.1900871 -0.223789,0.3209124 -0.05253,0.1043141 -0.0991,0.247156 -0.117372,0.3599541 -0.0034,0.021269 -0.0078,0.044885 -0.0097,0.052481 -0.0019,0.0076 -0.0049,0.2920204 -0.0067,0.6320546 l -0.0032,0.6182438 z"
     id="path154"
     inkscape:connector-curvature="0" /><path
     style="fill:#ececec;stroke-width:0.00552427"
     d="m 12.434728,7.3190186 c -0.14264,-0.00708 -0.432503,-0.036444 -0.469735,-0.047591 -0.0091,-0.00271 -0.0097,-0.021668 -0.0097,-0.2966895 2e-6,-0.1615874 0.0025,-0.3203268 0.0056,-0.3527543 0.01518,-0.1600674 0.07744,-0.292453 0.190502,-0.4050797 0.07448,-0.074193 0.163517,-0.1286975 0.259894,-0.1590986 0.06018,-0.018984 0.09653,-0.025011 0.187784,-0.031136 0.115994,-0.00779 0.181832,-0.035561 0.245755,-0.1036777 0.149955,-0.1597914 0.09982,-0.4282202 -0.0968,-0.5182708 -0.05705,-0.02613 -0.08549,-0.031336 -0.168725,-0.030893 -0.134412,7.152e-4 -0.27346,0.025704 -0.403037,0.07243 -0.106787,0.038508 -0.104179,0.031983 0.0069,-0.017321 0.13075,-0.058023 0.265415,-0.093155 0.357076,-0.093155 0.115464,0 0.239946,0.057221 0.336405,0.1546361 0.115206,0.1163472 0.136497,0.2281892 0.06615,0.3475009 -0.02297,0.038959 -0.09617,0.1134611 -0.141178,0.1436904 -0.08555,0.057458 -0.166568,0.084571 -0.280336,0.093816 -0.05056,0.00411 -0.07749,0.00941 -0.112277,0.022106 -0.134495,0.049085 -0.262887,0.1876396 -0.334449,0.360923 -0.05934,0.1436922 -0.08062,0.2619358 -0.08062,0.4480298 0,0.1831589 0.0113,0.2421105 0.05466,0.2852812 0.03211,0.031971 0.06709,0.045532 0.171592,0.066522 0.136099,0.027338 0.198318,0.033828 0.354631,0.03699 0.186653,0.00378 0.296905,-0.00368 0.514307,-0.034796 l 0.02624,-0.00376 v 0.017324 c 0,0.00953 -6.86e-4,0.017324 -0.0015,0.017324 -8.39e-4,0 -0.02135,0.00245 -0.04558,0.00545 -0.15944,0.01974 -0.466329,0.030488 -0.633593,0.02219 z"
     id="path156"
     inkscape:connector-curvature="0" /><path
     style="fill:#ececec;stroke-width:0.00552427"
     d="m 13.11741,7.2725258 c 0,-0.016116 0.0021,-0.019821 0.01101,-0.019821 0.01688,0 0.146465,-0.02587 0.254152,-0.050737 0.464688,-0.1073038 0.985462,-0.3185818 1.392117,-0.5647816 0.04102,-0.024833 0.08141,-0.049671 0.08977,-0.055194 l 0.01519,-0.010043 v 0.038275 0.038275 l -0.05662,0.036171 c -0.45982,0.2937268 -1.021438,0.5036848 -1.570274,0.5870385 -0.05165,0.00784 -0.103235,0.015697 -0.114629,0.017451 -0.02068,0.00318 -0.02072,0.00315 -0.02072,-0.016633 z"
     id="path162"
     inkscape:connector-curvature="0" /><path
     style="fill:#ececec;stroke-width:0.00552427"
     d="m 14.883629,6.6069541 c 0,-0.034689 0.0013,-0.039573 0.01243,-0.045409 0.02512,-0.013215 0.174699,-0.119052 0.244449,-0.1729614 0.109038,-0.084276 0.174436,-0.1421331 0.331379,-0.2931688 0.07895,-0.075983 0.185039,-0.177926 0.235741,-0.2265396 l 0.09219,-0.088388 4.22e-4,-0.8576432 4.22e-4,-0.8576432 h 0.02773 0.02773 l -0.0015,0.8024005 -0.0015,0.8024005 -0.01548,0.044194 c -0.01927,0.055025 -0.0457,0.095008 -0.127782,0.1933495 -0.218319,0.261552 -0.483599,0.5030557 -0.764101,0.6956152 l -0.06215,0.042663 z"
     id="path164"
     inkscape:connector-curvature="0" /><path
     style="fill:#ececec;stroke-width:0.00552427"
     d="M 15.800543,2.8899117 15.800429,1.7146229 15.547808,1.4763116 C 15.2146,1.1619777 15.14983,1.1058346 14.965776,0.97180419 14.762511,0.82378436 14.484452,0.6645326 14.260767,0.56802771 c -0.03114,-0.0134361 -0.05662,-0.027564 -0.05662,-0.0313952 0,-0.005077 0.01311,-0.006956 0.04834,-0.006928 l 0.04834,3.798e-5 0.132583,0.0652774 c 0.346118,0.17041242 0.631489,0.36193025 0.903218,0.60616741 0.196237,0.1763826 0.440773,0.4496502 0.484312,0.5412153 0.03691,0.077632 0.03477,0.00262 0.03487,1.2193245 l 9.6e-5,1.1034733 h -0.02762 -0.02762 l -1.14e-4,-1.1752888 z"
     id="path166"
     inkscape:connector-curvature="0" /><path
     style="fill:#ececec;stroke-width:0.00552427"
     d="m 10.364347,0.86193951 v -0.0378533 l 0.06767,-0.0415938 c 0.317802,-0.19533239 0.657698,-0.34490714 1.020609,-0.44912915 0.273677,-0.0785955 0.5819,-0.13128368 0.886646,-0.15156451 0.108367,-0.007212 0.412806,-0.007216 0.5249,-7.31e-6 0.471221,0.0303044 0.918192,0.13380957 1.349294,0.31245618 l 0.07881,0.0326569 -0.04273,0.001635 c -0.0235,8.9939e-4 -0.04428,0.004146 -0.04618,0.007214 -0.0021,0.003392 -0.0314,-0.005627 -0.07475,-0.0230055 -0.728772,-0.29217074 -1.558109,-0.366243 -2.336159,-0.20865403 -0.49862,0.10099224 -0.970089,0.29275931 -1.356917,0.5519178 -0.03594,0.0240794 -0.06667,0.0437807 -0.06827,0.0437807 -0.0016,0 -0.0029,-0.017034 -0.0029,-0.0378533 z"
     id="path168"
     inkscape:connector-curvature="0" /><path
     style="fill:#ececec;stroke-width:0.00552427"
     d="m 10.364347,2.6489191 c 0,-0.022292 0.103683,-0.1610316 0.212806,-0.2847578 0.075,-0.085033 0.215777,-0.223705 0.299899,-0.2954072 0.219587,-0.1871679 0.557595,-0.3995176 0.687801,-0.4321037 0.0794,-0.019871 0.146761,-0.00966 0.211527,0.032057 0.03825,0.024636 0.145041,0.1343596 0.167106,0.1716879 0.03457,0.058481 0.04684,0.096246 0.0471,0.1449173 2.49e-4,0.047807 -0.0055,0.070605 -0.03066,0.1209275 -0.01671,0.033455 -0.04313,0.071625 -0.04694,0.067813 -0.0012,-0.00118 0.0039,-0.0143 0.01133,-0.029153 0.03416,-0.068431 0.04353,-0.1619199 0.02317,-0.231403 -0.04242,-0.1447987 -0.169165,-0.2408434 -0.317821,-0.2408327 -0.02976,2.2e-6 -0.06717,0.00374 -0.08588,0.00859 -0.04627,0.01198 -0.259684,0.1196196 -0.359077,0.1811072 -0.317475,0.1963982 -0.581587,0.4477866 -0.78381,0.746051 -0.02753,0.040609 -0.03655,0.050599 -0.03655,0.040511 z"
     id="path170"
     inkscape:connector-curvature="0" /><path
     style="fill:#ececec;stroke-width:0.00552427"
     d="M 8.847522,2.7995898 C 8.8468646,2.7854466 8.9099033,2.6037711 8.948419,2.5088081 9.2099265,1.8640443 9.6641275,1.3073858 10.272373,0.88619955 l 0.08563,-0.0592928 0.0032,0.0378241 c 0.0028,0.0336878 0.002,0.0387302 -0.008,0.0461105 -0.0062,0.004558 -0.04613,0.034129 -0.0888,0.0657143 C 9.8199412,1.3054719 9.4307345,1.7303235 9.173209,2.1676132 9.1481584,2.2101501 9.0647234,2.371735 8.9877977,2.5266908 8.9108721,2.6816467 8.847748,2.8044512 8.847522,2.7995898 Z"
     id="path172"
     inkscape:connector-curvature="0" /><path
     style="fill:#ececec;stroke-width:0.00552427"
     d="m 8.7035942,4.3980379 c 1.395e-4,-0.7878883 0.00393,-0.8987069 0.038961,-1.1393811 0.011298,-0.07762 0.043723,-0.2421749 0.057148,-0.2900242 l 0.00775,-0.027621 4.318e-4,0.035908 C 8.8081224,2.9966686 8.800915,3.440406 8.791868,3.9630021 8.782818,4.4855982 8.775392,4.9423864 8.775357,4.978087 l -6.22e-5,0.06491 h -0.035908 -0.035908 z"
     id="path174"
     inkscape:connector-curvature="0" /><path
     style="fill:#ececec;stroke-width:0.00552427"
     d="M 8.8015359,6.0994736 8.7034801,6.0800428 V 5.5615197 5.0429966 h 0.035561 0.035561 l -0.00256,0.098056 c -0.00418,0.1595243 -0.013354,0.7313254 -0.013336,0.830572 l 1.66e-5,0.091701 0.075959,0.01558 c 0.071404,0.014646 0.075959,0.016352 0.075959,0.028452 0,0.00708 -0.00249,0.012573 -0.00552,0.012209 -0.00304,-3.646e-4 -0.049649,-0.00941 -0.1035801,-0.020093 z"
     id="path176"
     inkscape:connector-curvature="0" /><path
     style="fill:#ececec;stroke-width:0.00390625"
     d="m 10.38345,3.4226668 c -0.06798,-0.00917 -0.10658,-0.02388 -0.138917,-0.052954 -0.03543,-0.031853 -0.05707,-0.091803 -0.06091,-0.1687213 l -0.0019,-0.037728 0.0071,0.023467 c 0.02346,0.077974 0.07399,0.1463851 0.139936,0.1894323 0.05098,0.033279 0.101591,0.046884 0.174246,0.046839 0.09334,-5.78e-5 0.167909,-0.031271 0.229841,-0.096205 0.03491,-0.036604 0.03826,-0.041896 0.08063,-0.1275009 0.04547,-0.091861 0.0725,-0.1390639 0.124656,-0.2176731 0.191291,-0.2882951 0.45365,-0.5101918 0.788108,-0.6665632 0.04266,-0.019944 0.08364,-0.040901 0.09108,-0.046572 0.02379,-0.01815 0.01824,-0.00723 -0.0074,0.0145 -0.05634,0.047794 -0.120431,0.092602 -0.266152,0.1860658 -0.110368,0.070789 -0.210492,0.1511108 -0.312693,0.2508511 -0.116584,0.1137754 -0.201631,0.218237 -0.272231,0.3343753 -0.134929,0.2219599 -0.197373,0.2973953 -0.281067,0.339543 -0.053,0.026689 -0.0732,0.030307 -0.175602,0.03145 -0.05049,5.636e-4 -0.103912,-6.089e-4 -0.118718,-0.00261 z"
     id="path178"
     inkscape:connector-curvature="0" /><path
     style="fill:#ececec;stroke-width:0.00390625"
     d="m 10.206026,2.9471445 c -2.07e-4,-0.0094 0.03369,-0.09187 0.05627,-0.1368917 0.0122,-0.024326 0.03606,-0.06735 0.05302,-0.095609 0.03991,-0.066498 0.04679,-0.076539 0.04682,-0.068307 1.4e-5,0.00358 0.002,0.00717 0.0044,0.00798 0.0026,8.597e-4 -0.0028,0.012717 -0.013,0.028646 -0.0322,0.050286 -0.06285,0.1048283 -0.105255,0.1873351 -0.02319,0.045117 -0.04221,0.0797 -0.04228,0.07685 z"
     id="path180"
     inkscape:connector-curvature="0" /><path
     style="fill:#ececec;stroke-width:0.00390625"
     d="M 14.21375,3.4513935 C 14.20695,3.4217245 14.18089,3.3642615 14.1575,3.327117 14.0931,3.2248452 13.997942,3.1522016 13.880739,3.1158331 l -0.0293,-0.00909 0.02344,0.00221 c 0.108184,0.010183 0.202021,0.043475 0.248357,0.088115 0.04638,0.044681 0.07628,0.117167 0.0917,0.2223264 0.0068,0.046197 0.0061,0.06369 -0.0012,0.032004 z"
     id="path182"
     inkscape:connector-curvature="0" /><path
     style="fill:#ececec;stroke-width:0.00390625"
     d="m 13.642462,4.0755298 c -0.05219,-0.00954 -0.105508,-0.02701 -0.150322,-0.049258 -0.149345,-0.074142 -0.23978,-0.2328563 -0.246908,-0.4333212 -0.0033,-0.093609 0.0089,-0.1649331 0.04099,-0.2393978 0.03938,-0.091354 0.09837,-0.1516734 0.184711,-0.188898 0.05357,-0.023094 0.06013,-0.022365 0.02118,0.00236 -0.105399,0.066903 -0.175163,0.1543919 -0.212877,0.2669608 -0.03111,0.092854 -0.03163,0.2068823 -0.0014,0.2996036 0.04685,0.143556 0.160706,0.2612708 0.302099,0.3123401 0.218425,0.078892 0.465073,-0.010872 0.5843,-0.2126491 0.01909,-0.032305 0.02134,-0.032325 0.0091,-8.16e-5 -0.04816,0.1269782 -0.138811,0.2014135 -0.288722,0.2370853 -0.05796,0.013793 -0.180893,0.016462 -0.242187,0.00526 z"
     id="path184"
     inkscape:connector-curvature="0" /><path
     style="fill:#241c1c;stroke-width:0.23689304"
     d="M 2.1959896,15.620419 C 1.4940972,14.918524 1.8836698,14.165058 4.0982997,11.941181 L 6.2848817,9.7454707 4.0982997,7.5497585 C 2.4244288,5.8688976 1.9117181,5.2042906 1.9117181,4.7153766 c 0,-0.6149934 0.5473489,-1.129126 1.2020742,-1.129126 0.1571048,0 1.3143448,1.0106721 2.5716382,2.2459385 L 7.9714176,8.0781275 10.070976,5.9687961 c 2.208037,-2.2183152 2.550219,-2.4315868 3.398111,-2.1179316 0.389812,0.1442008 0.524178,0.3862161 0.524178,0.944127 0,0.6256271 -0.353283,1.1104674 -2.127182,2.9193456 L 9.7388992,9.8834573 11.866083,12.000785 c 2.158707,2.148708 2.548411,2.914127 1.842914,3.619634 -0.61668,0.616678 -1.280165,0.250866 -3.432299,-1.892307 L 8.0910357,11.55154 5.8411342,13.728112 C 3.5857529,15.909993 2.8615295,16.28596 2.1959896,15.620419 Z"
     id="path66"
     inkscape:connector-curvature="0" /></svg>