<?xml version="1.0" encoding="UTF-8" standalone="no"?>
<svg
   xmlns:dc="http://purl.org/dc/elements/1.1/"
   xmlns:cc="http://creativecommons.org/ns#"
   xmlns:rdf="http://www.w3.org/1999/02/22-rdf-syntax-ns#"
   xmlns:svg="http://www.w3.org/2000/svg"
   xmlns="http://www.w3.org/2000/svg"
   xmlns:sodipodi="http://sodipodi.sourceforge.net/DTD/sodipodi-0.dtd"
   xmlns:inkscape="http://www.inkscape.org/namespaces/inkscape"
   version="1.1"
   xml:space="preserve"
   width="16"
   height="16"
   id="svg284"
   sodipodi:docname="AirpodL_new.svg"
   inkscape:version="0.92.1 r15371"><metadata
     id="metadata290"><rdf:RDF><cc:Work
         rdf:about=""><dc:format>image/svg+xml</dc:format><dc:type
           rdf:resource="http://purl.org/dc/dcmitype/StillImage" /><dc:title></dc:title></cc:Work></rdf:RDF></metadata><defs
     id="defs288" /><sodipodi:namedview
     pagecolor="#ffffff"
     bordercolor="#666666"
     borderopacity="1"
     objecttolerance="10"
     gridtolerance="10"
     guidetolerance="10"
     inkscape:pageopacity="0"
     inkscape:pageshadow="2"
     inkscape:window-width="1920"
     inkscape:window-height="1026"
     id="namedview286"
     showgrid="false"
     inkscape:zoom="32"
     inkscape:cx="11.497036"
     inkscape:cy="7.3440318"
     inkscape:window-x="0"
     inkscape:window-y="25"
     inkscape:window-maximized="1"
     inkscape:current-layer="svg284"
     fit-margin-top="0"
     fit-margin-left="0"
     fit-margin-right="0"
     fit-margin-bottom="0" /><rect
     id="backgroundrect"
     width="100%"
     height="100%"
     x="0"
     y="-487.5"
     style="fill:none;stroke:none" /><g
     class="currentLayer"
     id="g282"
     transform="matrix(0.03168868,0,0,0.03168868,-0.38635495,-0.07110378)"><title
       id="title252">Layer 1</title><path
       style="fill:#cccccc"
       d="m 293.67299,490.902 v -15.748 h 62.643 v 15.748 c 0,6.93 -5.669,12.598 -12.598,12.598 h -37.445 c -6.931,0 -12.6,-5.67 -12.6,-12.598 z"
       id="svg_1"
       class=""
       inkscape:connector-curvature="0" /><path
       style="fill:#bababa"
       d="m 323.67199,490.902 v -15.748 h -29.999 v 15.748 c 0,6.93 5.67,12.598 12.598,12.598 h 29.999 c -6.929,0 -12.598,-5.67 -12.598,-12.598 z"
       id="svg_2"
       class=""
       inkscape:connector-curvature="0" /><path
       style="fill:#efefef"
       d="m 315.30099,37.054 c -16.465,-16.465 -41.2,-29.502 -71.672,-29.502 -69.993,0 -101.721,58.968 -101.721,58.968 0,83.454 0,77.798 0,78.043 0,0 31.728,58.968 101.721,58.968 16.507,0 30.676,-4.48 42.695,-11.323 0,12.749 0,255.96 0,276.176 0,4.29 3.478,7.768 7.768,7.768 h 62.32 c 4.199,0 7.604,-3.404 7.604,-7.604 0,-10.568 0,-289.205 0,-301.589 -10e-4,0.001 0.423,-86.09 -48.715,-129.905 z"
       id="svg_6"
       class=""
       inkscape:connector-curvature="0" /><circle
       style="fill:#666666"
       cx="209.677"
       cy="105.545"
       r="14.173"
       id="svg_11"
       class="" /><g
       id="svg_15"
       class=""><path
         style="fill:#dddddd"
         d="m 258.74399,8.656 c -4.864,-0.715 -9.904,-1.104 -15.115,-1.104 -69.993,0 -101.721,58.968 -101.721,58.968 0,83.454 0,77.798 0,78.043 0,0 31.728,58.968 101.721,58.968 5.053,0 9.885,-0.424 14.504,-1.203 -46.269,-7.367 -81.277,-47.999 -81.277,-96.161 v -1.253 c 0.001,-48.372 35.315,-89.153 81.888,-96.258 z"
         id="svg_16"
         inkscape:connector-curvature="0" /><path
         style="fill:#dddddd"
         d="m 316.47699,468.386 c 0,-34.013 0,-238.001 0,-276.176 0,-42.901 -47.3,-36.237 -47.3,-36.237 12.003,6.792 17.104,23.247 17.104,36.237 v 0.022 c 0.014,-0.008 0.028,-0.015 0.042,-0.022 0,16.275 0,259.977 0,276.176 0,4.29 3.478,7.768 7.768,7.768 h 30.154 c -4.29,-10e-4 -7.768,-3.479 -7.768,-7.768 z"
         id="svg_17"
         inkscape:connector-curvature="0" /></g><path
       style="fill:#666666"
       d="m 152.98799,149.812 c -7.828,0 -14.173,-6.346 -14.173,-14.173 V 75.444 c 0,-7.828 6.346,-14.173 14.173,-14.173 7.827,0 14.173,6.346 14.173,14.173 v 60.194 c 0.001,7.829 -6.346,14.174 -14.173,14.174 z"
       id="svg_18"
       class=""
       inkscape:connector-curvature="0" /><path
       style="fill:#535454"
       d="m 152.98799,111.844 c -7.828,0 -14.173,-6.346 -14.173,-14.173 v 37.968 c 0,7.828 6.346,14.173 14.173,14.173 7.827,0 14.173,-6.346 14.173,-14.173 V 97.67 c 0.001,7.829 -6.346,14.174 -14.173,14.174 z"
       id="svg_19"
       class=""
       inkscape:connector-curvature="0" /><path
       d="m 292.83999,41.579 c -3.326,-2.474 -8.023,-1.78 -10.493,1.544 -2.472,3.324 -1.78,8.022 1.544,10.493 5.197,3.865 8.338,7.204 8.919,7.722 9.382,8.366 17.299,19.519 23.533,33.148 1.261,2.756 3.98,4.383 6.825,4.383 1.043,0 2.103,-0.219 3.114,-0.682 3.768,-1.723 5.424,-6.173 3.701,-9.939 -8.324,-18.199 -20.082,-33.985 -37.143,-46.669 z"
       id="svg_21"
       class=""
       inkscape:connector-curvature="0" /><path
       d="m 188.00899,105.542 c 0,11.95 9.723,21.673 21.673,21.673 11.95,0 21.674,-9.723 21.674,-21.673 0,-11.95 -9.724,-21.674 -21.674,-21.674 -11.951,0 -21.673,9.724 -21.673,21.674 z m 28.347,0 c 0,3.68 -2.994,6.674 -6.675,6.674 -3.68,0 -6.674,-2.994 -6.674,-6.674 0,-3.681 2.994,-6.675 6.674,-6.675 3.681,0 6.675,2.994 6.675,6.675 z"
       id="svg_22"
       class=""
       inkscape:connector-curvature="0" /><path
       d="m 342.93699,159.63 c -0.18,-0.45 -0.42,-0.89 -0.69,-1.29 -0.27,-0.42 -0.58,-0.8 -0.93,-1.14 -0.34,-0.351 -0.73,-0.66 -1.14,-0.94 -0.4,-0.27 -0.841,-0.5 -1.29,-0.689 -0.46,-0.181 -0.931,-0.33 -1.41,-0.431 -0.96,-0.189 -1.96,-0.189 -2.93,0 -0.471,0.101 -0.95,0.25 -1.4,0.431 -0.45,0.189 -0.89,0.42 -1.29,0.689 -0.42,0.28 -0.8,0.59 -1.14,0.94 -0.351,0.34 -0.66,0.72 -0.94,1.14 -0.27,0.4 -0.5,0.84 -0.69,1.29 -0.18,0.45 -0.329,0.92 -0.42,1.4 -0.1,0.49 -0.149,0.98 -0.149,1.47 0,0.49 0.05,0.98 0.149,1.46 0.091,0.48 0.24,0.95 0.42,1.41 0.19,0.45 0.421,0.89 0.69,1.29 0.28,0.41 0.59,0.8 0.94,1.14 0.34,0.351 0.72,0.66 1.14,0.931 0.4,0.27 0.84,0.51 1.29,0.689 0.45,0.191 0.93,0.34 1.4,0.43 0.489,0.101 0.979,0.15 1.47,0.15 0.49,0 0.979,-0.05 1.46,-0.15 0.479,-0.09 0.95,-0.239 1.41,-0.43 0.449,-0.18 0.89,-0.42 1.29,-0.689 0.409,-0.271 0.8,-0.58 1.14,-0.931 0.35,-0.34 0.66,-0.729 0.93,-1.14 0.271,-0.4 0.511,-0.84 0.69,-1.29 0.189,-0.46 0.34,-0.93 0.43,-1.41 0.101,-0.479 0.15,-0.97 0.15,-1.46 0,-0.49 -0.05,-0.98 -0.15,-1.47 -0.09,-0.48 -0.24,-0.95 -0.43,-1.4 z"
       id="svg_23"
       class=""
       inkscape:connector-curvature="0" /><path
       d="m 311.49599,442.868 c -4.143,0 -7.5,3.357 -7.5,7.5 0,4.143 3.357,7.5 7.5,7.5 h 26.999 c 4.143,0 7.5,-3.357 7.5,-7.5 0,-4.143 -3.357,-7.5 -7.5,-7.5 z"
       id="svg_24"
       class=""
       inkscape:connector-curvature="0" /><g
       id="svg_31"
       class="" /><g
       id="svg_32"
       class="" /><g
       id="svg_33"
       class="" /><g
       id="svg_34"
       class="" /><g
       id="svg_35"
       class="" /><g
       id="svg_36"
       class="" /><g
       id="svg_37"
       class="" /><g
       id="svg_38"
       class="" /><g
       id="svg_39"
       class="" /><g
       id="svg_40"
       class="" /><g
       id="svg_41"
       class="" /><g
       id="svg_42"
       class="" /><g
       id="svg_43"
       class="" /><g
       id="svg_44"
       class="" /><g
       id="svg_45"
       class="" /></g></svg>